<svg width="128" height="128" viewBox="0 0 128 128" fill="none" xmlns="http://www.w3.org/2000/svg">
<rect x="3.87878" y="3.87878" width="124.121" height="124.121" rx="8" fill="black"/>
<rect x="2" y="2" width="120.121" height="120.121" rx="6" fill="#0468FC"/>
<rect x="2" y="2" width="120.121" height="120.121" rx="6" stroke="black" stroke-width="4"/>
<path d="M32.9628 44.5053C31.6791 43.2147 31.6791 41.1292 32.9628 39.8386C34.2465 38.5481 36.3313 38.5481 37.615 39.8386L57.333 59.6615C58.6168 60.9521 58.6168 63.0479 57.333 64.3385L37.615 84.1614C36.3313 85.452 34.2465 85.452 32.9628 84.1614C31.6791 82.8709 31.6791 80.775 32.9628 79.4844L50.3496 61.9948L32.9628 44.5053ZM58.2881 78.5139H87.8652C89.6829 78.5139 91.1515 79.9903 91.1515 81.8178C91.1515 83.6452 89.6829 85.1216 87.8652 85.1216H58.2881C56.4704 85.1216 55.0018 83.6452 55.0018 81.8178C55.0018 79.9903 56.4704 78.5139 58.2881 78.5139Z" fill="white"/>
</svg>
